<svg width="69.000000" height="69.000000" viewBox="0 0 69 69" fill="none" xmlns="http://www.w3.org/2000/svg" xmlns:xlink="http://www.w3.org/1999/xlink">
	<desc>
			Created with Pixso.
	</desc>
	<defs/>
	<path id="Vector" d="M56.33 34C56.33 21.66 46.33 11.66 34 11.66C21.66 11.66 11.66 21.66 11.66 34C11.66 46.33 21.66 56.33 34 56.33C46.33 56.33 56.33 46.33 56.33 34ZM55.91 8.62C53.92 8.62 52.32 10.24 52.32 12.22C52.32 14.21 53.92 15.81 55.91 15.81C57.89 15.81 59.51 14.21 59.51 12.22C59.51 10.24 57.89 8.62 55.91 8.62ZM15.73 3.46L52.26 3.46C59.02 3.46 64.54 8.98 64.54 15.73L64.54 52.25C64.54 59.02 59.02 64.54 52.26 64.54L15.73 64.54C8.98 64.54 3.45 59.02 3.45 52.25L3.45 15.73C3.45 8.98 8.98 3.46 15.73 3.46ZM52.26 -0.64L15.73 -0.64C6.73 -0.64 -0.64 6.73 -0.64 15.73L-0.64 52.25C-0.64 61.27 6.73 68.63 15.73 68.63L52.26 68.63C61.27 68.63 68.63 61.27 68.63 52.25L68.63 15.73C68.63 6.73 61.27 -0.64 52.26 -0.64ZM16.29 34C16.29 24.22 24.22 16.29 34 16.29C43.77 16.29 51.7 24.22 51.7 34C51.7 43.77 43.77 51.7 34 51.7C24.22 51.7 16.29 43.77 16.29 34Z" fill="#FFFFFF" fill-opacity="1.000000" fill-rule="evenodd"/>
</svg>
